<mxfile host="app.diagrams.net" modified="2023-04-03T09:49:45.073Z" agent="Mozilla/5.0 (Windows NT 10.0; Win64; x64) AppleWebKit/537.36 (KHTML, like Gecko) Chrome/110.0.0.0 YaBrowser/23.3.0.2246 Yowser/2.5 Safari/537.36" etag="9e9qDIH_m1iw7aSmDeEK" version="21.1.1" type="github">
  <diagram id="C5RBs43oDa-KdzZeNtuy" name="Page-1">
    <mxGraphModel dx="1312" dy="831" grid="1" gridSize="10" guides="1" tooltips="1" connect="1" arrows="1" fold="1" page="1" pageScale="1" pageWidth="827" pageHeight="1169" math="0" shadow="0">
      <root>
        <mxCell id="WIyWlLk6GJQsqaUBKTNV-0" />
        <mxCell id="WIyWlLk6GJQsqaUBKTNV-1" parent="WIyWlLk6GJQsqaUBKTNV-0" />
        <mxCell id="IO4nK84KxxKu2FDkfK-a-31" style="edgeStyle=orthogonalEdgeStyle;rounded=0;orthogonalLoop=1;jettySize=auto;html=1;entryX=0.5;entryY=0;entryDx=0;entryDy=0;exitX=1;exitY=0.5;exitDx=0;exitDy=0;" edge="1" parent="WIyWlLk6GJQsqaUBKTNV-1" source="IO4nK84KxxKu2FDkfK-a-0" target="IO4nK84KxxKu2FDkfK-a-30">
          <mxGeometry relative="1" as="geometry" />
        </mxCell>
        <mxCell id="IO4nK84KxxKu2FDkfK-a-0" value="Подключаем библиотеку&lt;br&gt;math" style="ellipse;whiteSpace=wrap;html=1;" vertex="1" parent="WIyWlLk6GJQsqaUBKTNV-1">
          <mxGeometry x="20" y="10" width="286" height="80" as="geometry" />
        </mxCell>
        <mxCell id="IO4nK84KxxKu2FDkfK-a-10" value="" style="edgeStyle=orthogonalEdgeStyle;rounded=0;orthogonalLoop=1;jettySize=auto;html=1;" edge="1" parent="WIyWlLk6GJQsqaUBKTNV-1" source="IO4nK84KxxKu2FDkfK-a-2" target="IO4nK84KxxKu2FDkfK-a-9">
          <mxGeometry relative="1" as="geometry" />
        </mxCell>
        <mxCell id="IO4nK84KxxKu2FDkfK-a-2" value="Вводим первый откет" style="whiteSpace=wrap;html=1;" vertex="1" parent="WIyWlLk6GJQsqaUBKTNV-1">
          <mxGeometry x="370" y="190" width="120" height="60" as="geometry" />
        </mxCell>
        <mxCell id="IO4nK84KxxKu2FDkfK-a-7" value="" style="edgeStyle=orthogonalEdgeStyle;rounded=0;orthogonalLoop=1;jettySize=auto;html=1;" edge="1" parent="WIyWlLk6GJQsqaUBKTNV-1" source="IO4nK84KxxKu2FDkfK-a-4" target="IO4nK84KxxKu2FDkfK-a-6">
          <mxGeometry relative="1" as="geometry" />
        </mxCell>
        <mxCell id="IO4nK84KxxKu2FDkfK-a-4" value="ЦИКЛ: Если введённый октет меньше 0 или больше 255" style="whiteSpace=wrap;html=1;" vertex="1" parent="WIyWlLk6GJQsqaUBKTNV-1">
          <mxGeometry x="570" y="190" width="120" height="60" as="geometry" />
        </mxCell>
        <mxCell id="IO4nK84KxxKu2FDkfK-a-8" style="edgeStyle=orthogonalEdgeStyle;rounded=0;orthogonalLoop=1;jettySize=auto;html=1;entryX=0.5;entryY=0;entryDx=0;entryDy=0;" edge="1" parent="WIyWlLk6GJQsqaUBKTNV-1" source="IO4nK84KxxKu2FDkfK-a-6" target="IO4nK84KxxKu2FDkfK-a-4">
          <mxGeometry relative="1" as="geometry">
            <mxPoint x="547" y="200" as="targetPoint" />
            <Array as="points">
              <mxPoint x="774" y="170" />
              <mxPoint x="630" y="170" />
            </Array>
          </mxGeometry>
        </mxCell>
        <mxCell id="IO4nK84KxxKu2FDkfK-a-6" value="Вводим октет снова" style="ellipse;whiteSpace=wrap;html=1;" vertex="1" parent="WIyWlLk6GJQsqaUBKTNV-1">
          <mxGeometry x="734" y="180" width="80" height="80" as="geometry" />
        </mxCell>
        <mxCell id="IO4nK84KxxKu2FDkfK-a-22" value="" style="edgeStyle=orthogonalEdgeStyle;rounded=0;orthogonalLoop=1;jettySize=auto;html=1;" edge="1" parent="WIyWlLk6GJQsqaUBKTNV-1" source="IO4nK84KxxKu2FDkfK-a-9" target="IO4nK84KxxKu2FDkfK-a-17">
          <mxGeometry relative="1" as="geometry" />
        </mxCell>
        <mxCell id="IO4nK84KxxKu2FDkfK-a-9" value="Вводим второй октет" style="whiteSpace=wrap;html=1;" vertex="1" parent="WIyWlLk6GJQsqaUBKTNV-1">
          <mxGeometry x="370" y="290" width="120" height="60" as="geometry" />
        </mxCell>
        <mxCell id="IO4nK84KxxKu2FDkfK-a-11" value="" style="edgeStyle=orthogonalEdgeStyle;rounded=0;orthogonalLoop=1;jettySize=auto;html=1;" edge="1" parent="WIyWlLk6GJQsqaUBKTNV-1" source="IO4nK84KxxKu2FDkfK-a-12" target="IO4nK84KxxKu2FDkfK-a-14">
          <mxGeometry relative="1" as="geometry" />
        </mxCell>
        <mxCell id="IO4nK84KxxKu2FDkfK-a-12" value="ЦИКЛ: Если введённый октет меньше 0 или больше 255" style="whiteSpace=wrap;html=1;" vertex="1" parent="WIyWlLk6GJQsqaUBKTNV-1">
          <mxGeometry x="573" y="290" width="120" height="60" as="geometry" />
        </mxCell>
        <mxCell id="IO4nK84KxxKu2FDkfK-a-13" style="edgeStyle=orthogonalEdgeStyle;rounded=0;orthogonalLoop=1;jettySize=auto;html=1;entryX=0.5;entryY=0;entryDx=0;entryDy=0;" edge="1" parent="WIyWlLk6GJQsqaUBKTNV-1" source="IO4nK84KxxKu2FDkfK-a-14" target="IO4nK84KxxKu2FDkfK-a-12">
          <mxGeometry relative="1" as="geometry">
            <mxPoint x="557" y="210" as="targetPoint" />
            <Array as="points">
              <mxPoint x="784" y="270" />
              <mxPoint x="633" y="270" />
            </Array>
          </mxGeometry>
        </mxCell>
        <mxCell id="IO4nK84KxxKu2FDkfK-a-14" value="Вводим октет снова" style="ellipse;whiteSpace=wrap;html=1;" vertex="1" parent="WIyWlLk6GJQsqaUBKTNV-1">
          <mxGeometry x="734" y="280" width="80" height="80" as="geometry" />
        </mxCell>
        <mxCell id="IO4nK84KxxKu2FDkfK-a-29" value="" style="edgeStyle=orthogonalEdgeStyle;rounded=0;orthogonalLoop=1;jettySize=auto;html=1;" edge="1" parent="WIyWlLk6GJQsqaUBKTNV-1" source="IO4nK84KxxKu2FDkfK-a-17" target="IO4nK84KxxKu2FDkfK-a-24">
          <mxGeometry relative="1" as="geometry" />
        </mxCell>
        <mxCell id="IO4nK84KxxKu2FDkfK-a-17" value="Вводим третий октет" style="whiteSpace=wrap;html=1;" vertex="1" parent="WIyWlLk6GJQsqaUBKTNV-1">
          <mxGeometry x="370" y="390" width="120" height="60" as="geometry" />
        </mxCell>
        <mxCell id="IO4nK84KxxKu2FDkfK-a-18" value="" style="edgeStyle=orthogonalEdgeStyle;rounded=0;orthogonalLoop=1;jettySize=auto;html=1;" edge="1" parent="WIyWlLk6GJQsqaUBKTNV-1" source="IO4nK84KxxKu2FDkfK-a-19">
          <mxGeometry relative="1" as="geometry">
            <mxPoint x="734" y="420" as="targetPoint" />
          </mxGeometry>
        </mxCell>
        <mxCell id="IO4nK84KxxKu2FDkfK-a-19" value="ЦИКЛ: Если введённый октет меньше 0 или больше 255" style="whiteSpace=wrap;html=1;" vertex="1" parent="WIyWlLk6GJQsqaUBKTNV-1">
          <mxGeometry x="573" y="390" width="120" height="60" as="geometry" />
        </mxCell>
        <mxCell id="IO4nK84KxxKu2FDkfK-a-20" style="edgeStyle=orthogonalEdgeStyle;rounded=0;orthogonalLoop=1;jettySize=auto;html=1;entryX=0.5;entryY=0;entryDx=0;entryDy=0;" edge="1" parent="WIyWlLk6GJQsqaUBKTNV-1" target="IO4nK84KxxKu2FDkfK-a-19">
          <mxGeometry relative="1" as="geometry">
            <mxPoint x="557" y="310" as="targetPoint" />
            <Array as="points">
              <mxPoint x="784" y="370" />
              <mxPoint x="633" y="370" />
            </Array>
            <mxPoint x="784" y="381" as="sourcePoint" />
          </mxGeometry>
        </mxCell>
        <mxCell id="IO4nK84KxxKu2FDkfK-a-21" value="Вводим октет снова" style="ellipse;whiteSpace=wrap;html=1;" vertex="1" parent="WIyWlLk6GJQsqaUBKTNV-1">
          <mxGeometry x="734" y="380" width="80" height="80" as="geometry" />
        </mxCell>
        <mxCell id="IO4nK84KxxKu2FDkfK-a-44" value="" style="edgeStyle=orthogonalEdgeStyle;rounded=0;orthogonalLoop=1;jettySize=auto;html=1;" edge="1" parent="WIyWlLk6GJQsqaUBKTNV-1" source="IO4nK84KxxKu2FDkfK-a-24" target="IO4nK84KxxKu2FDkfK-a-38">
          <mxGeometry relative="1" as="geometry" />
        </mxCell>
        <mxCell id="IO4nK84KxxKu2FDkfK-a-24" value="Вводим четвёртый октет" style="whiteSpace=wrap;html=1;" vertex="1" parent="WIyWlLk6GJQsqaUBKTNV-1">
          <mxGeometry x="370" y="500" width="120" height="60" as="geometry" />
        </mxCell>
        <mxCell id="IO4nK84KxxKu2FDkfK-a-25" value="" style="edgeStyle=orthogonalEdgeStyle;rounded=0;orthogonalLoop=1;jettySize=auto;html=1;" edge="1" parent="WIyWlLk6GJQsqaUBKTNV-1" source="IO4nK84KxxKu2FDkfK-a-26">
          <mxGeometry relative="1" as="geometry">
            <mxPoint x="734" y="530" as="targetPoint" />
          </mxGeometry>
        </mxCell>
        <mxCell id="IO4nK84KxxKu2FDkfK-a-26" value="ЦИКЛ: Если введённый октет меньше 0 или больше 255" style="whiteSpace=wrap;html=1;" vertex="1" parent="WIyWlLk6GJQsqaUBKTNV-1">
          <mxGeometry x="573" y="500" width="120" height="60" as="geometry" />
        </mxCell>
        <mxCell id="IO4nK84KxxKu2FDkfK-a-27" style="edgeStyle=orthogonalEdgeStyle;rounded=0;orthogonalLoop=1;jettySize=auto;html=1;entryX=0.5;entryY=0;entryDx=0;entryDy=0;" edge="1" parent="WIyWlLk6GJQsqaUBKTNV-1" target="IO4nK84KxxKu2FDkfK-a-26">
          <mxGeometry relative="1" as="geometry">
            <mxPoint x="557" y="420" as="targetPoint" />
            <Array as="points">
              <mxPoint x="784" y="480" />
              <mxPoint x="633" y="480" />
            </Array>
            <mxPoint x="784" y="491" as="sourcePoint" />
          </mxGeometry>
        </mxCell>
        <mxCell id="IO4nK84KxxKu2FDkfK-a-28" value="Вводим октет снова" style="ellipse;whiteSpace=wrap;html=1;" vertex="1" parent="WIyWlLk6GJQsqaUBKTNV-1">
          <mxGeometry x="734" y="490" width="80" height="80" as="geometry" />
        </mxCell>
        <mxCell id="IO4nK84KxxKu2FDkfK-a-50" style="edgeStyle=orthogonalEdgeStyle;rounded=0;orthogonalLoop=1;jettySize=auto;html=1;" edge="1" parent="WIyWlLk6GJQsqaUBKTNV-1" source="IO4nK84KxxKu2FDkfK-a-30">
          <mxGeometry relative="1" as="geometry">
            <mxPoint x="440" y="160" as="targetPoint" />
          </mxGeometry>
        </mxCell>
        <mxCell id="IO4nK84KxxKu2FDkfK-a-30" value="Создаём цикл" style="ellipse;whiteSpace=wrap;html=1;aspect=fixed;" vertex="1" parent="WIyWlLk6GJQsqaUBKTNV-1">
          <mxGeometry x="300" y="70" width="80" height="80" as="geometry" />
        </mxCell>
        <mxCell id="IO4nK84KxxKu2FDkfK-a-33" value="" style="endArrow=classic;startArrow=classic;html=1;rounded=0;entryX=0;entryY=0.5;entryDx=0;entryDy=0;exitX=1;exitY=0.5;exitDx=0;exitDy=0;" edge="1" parent="WIyWlLk6GJQsqaUBKTNV-1" source="IO4nK84KxxKu2FDkfK-a-2" target="IO4nK84KxxKu2FDkfK-a-4">
          <mxGeometry width="50" height="50" relative="1" as="geometry">
            <mxPoint x="434" y="270" as="sourcePoint" />
            <mxPoint x="484" y="220" as="targetPoint" />
          </mxGeometry>
        </mxCell>
        <mxCell id="IO4nK84KxxKu2FDkfK-a-34" value="" style="endArrow=classic;startArrow=classic;html=1;rounded=0;entryX=0;entryY=0.5;entryDx=0;entryDy=0;exitX=1;exitY=0.5;exitDx=0;exitDy=0;" edge="1" parent="WIyWlLk6GJQsqaUBKTNV-1">
          <mxGeometry width="50" height="50" relative="1" as="geometry">
            <mxPoint x="490" y="319.5" as="sourcePoint" />
            <mxPoint x="570" y="319.5" as="targetPoint" />
          </mxGeometry>
        </mxCell>
        <mxCell id="IO4nK84KxxKu2FDkfK-a-35" value="" style="endArrow=classic;startArrow=classic;html=1;rounded=0;entryX=0;entryY=0.5;entryDx=0;entryDy=0;exitX=1;exitY=0.5;exitDx=0;exitDy=0;" edge="1" parent="WIyWlLk6GJQsqaUBKTNV-1">
          <mxGeometry width="50" height="50" relative="1" as="geometry">
            <mxPoint x="490" y="419.5" as="sourcePoint" />
            <mxPoint x="570" y="419.5" as="targetPoint" />
          </mxGeometry>
        </mxCell>
        <mxCell id="IO4nK84KxxKu2FDkfK-a-36" value="" style="endArrow=classic;startArrow=classic;html=1;rounded=0;entryX=0;entryY=0.5;entryDx=0;entryDy=0;exitX=1;exitY=0.5;exitDx=0;exitDy=0;" edge="1" parent="WIyWlLk6GJQsqaUBKTNV-1" source="IO4nK84KxxKu2FDkfK-a-24">
          <mxGeometry width="50" height="50" relative="1" as="geometry">
            <mxPoint x="493" y="529.5" as="sourcePoint" />
            <mxPoint x="573" y="529.5" as="targetPoint" />
          </mxGeometry>
        </mxCell>
        <mxCell id="IO4nK84KxxKu2FDkfK-a-38" value="Вводим маску" style="whiteSpace=wrap;html=1;" vertex="1" parent="WIyWlLk6GJQsqaUBKTNV-1">
          <mxGeometry x="370" y="600" width="120" height="60" as="geometry" />
        </mxCell>
        <mxCell id="IO4nK84KxxKu2FDkfK-a-39" value="" style="edgeStyle=orthogonalEdgeStyle;rounded=0;orthogonalLoop=1;jettySize=auto;html=1;" edge="1" parent="WIyWlLk6GJQsqaUBKTNV-1" source="IO4nK84KxxKu2FDkfK-a-40">
          <mxGeometry relative="1" as="geometry">
            <mxPoint x="734" y="630" as="targetPoint" />
          </mxGeometry>
        </mxCell>
        <mxCell id="IO4nK84KxxKu2FDkfK-a-40" value="ЦИКЛ: Если введённая маска меньше 0 или больше 32" style="whiteSpace=wrap;html=1;" vertex="1" parent="WIyWlLk6GJQsqaUBKTNV-1">
          <mxGeometry x="573" y="600" width="120" height="60" as="geometry" />
        </mxCell>
        <mxCell id="IO4nK84KxxKu2FDkfK-a-41" style="edgeStyle=orthogonalEdgeStyle;rounded=0;orthogonalLoop=1;jettySize=auto;html=1;entryX=0.5;entryY=0;entryDx=0;entryDy=0;" edge="1" parent="WIyWlLk6GJQsqaUBKTNV-1" target="IO4nK84KxxKu2FDkfK-a-40">
          <mxGeometry relative="1" as="geometry">
            <mxPoint x="557" y="520" as="targetPoint" />
            <Array as="points">
              <mxPoint x="784" y="580" />
              <mxPoint x="633" y="580" />
            </Array>
            <mxPoint x="784" y="591" as="sourcePoint" />
          </mxGeometry>
        </mxCell>
        <mxCell id="IO4nK84KxxKu2FDkfK-a-42" value="Вводим маску снова" style="ellipse;whiteSpace=wrap;html=1;" vertex="1" parent="WIyWlLk6GJQsqaUBKTNV-1">
          <mxGeometry x="734" y="590" width="80" height="80" as="geometry" />
        </mxCell>
        <mxCell id="IO4nK84KxxKu2FDkfK-a-43" value="" style="endArrow=classic;startArrow=classic;html=1;rounded=0;entryX=0;entryY=0.5;entryDx=0;entryDy=0;exitX=1;exitY=0.5;exitDx=0;exitDy=0;" edge="1" parent="WIyWlLk6GJQsqaUBKTNV-1" source="IO4nK84KxxKu2FDkfK-a-38">
          <mxGeometry width="50" height="50" relative="1" as="geometry">
            <mxPoint x="493" y="629.5" as="sourcePoint" />
            <mxPoint x="573" y="629.5" as="targetPoint" />
          </mxGeometry>
        </mxCell>
        <mxCell id="IO4nK84KxxKu2FDkfK-a-46" value="" style="endArrow=none;dashed=1;html=1;rounded=0;" edge="1" parent="WIyWlLk6GJQsqaUBKTNV-1">
          <mxGeometry width="50" height="50" relative="1" as="geometry">
            <mxPoint x="350" y="680" as="sourcePoint" />
            <mxPoint x="350" y="160" as="targetPoint" />
          </mxGeometry>
        </mxCell>
        <mxCell id="IO4nK84KxxKu2FDkfK-a-47" value="" style="endArrow=none;dashed=1;html=1;rounded=0;" edge="1" parent="WIyWlLk6GJQsqaUBKTNV-1">
          <mxGeometry width="50" height="50" relative="1" as="geometry">
            <mxPoint x="820" y="680" as="sourcePoint" />
            <mxPoint x="350" y="680" as="targetPoint" />
          </mxGeometry>
        </mxCell>
        <mxCell id="IO4nK84KxxKu2FDkfK-a-48" value="" style="endArrow=none;dashed=1;html=1;rounded=0;" edge="1" parent="WIyWlLk6GJQsqaUBKTNV-1">
          <mxGeometry width="50" height="50" relative="1" as="geometry">
            <mxPoint x="820" y="680" as="sourcePoint" />
            <mxPoint x="820" y="160" as="targetPoint" />
          </mxGeometry>
        </mxCell>
        <mxCell id="IO4nK84KxxKu2FDkfK-a-49" value="" style="endArrow=none;dashed=1;html=1;rounded=0;" edge="1" parent="WIyWlLk6GJQsqaUBKTNV-1">
          <mxGeometry width="50" height="50" relative="1" as="geometry">
            <mxPoint x="820" y="160" as="sourcePoint" />
            <mxPoint x="350" y="160" as="targetPoint" />
          </mxGeometry>
        </mxCell>
        <mxCell id="IO4nK84KxxKu2FDkfK-a-52" value="" style="endArrow=classic;html=1;rounded=0;" edge="1" parent="WIyWlLk6GJQsqaUBKTNV-1">
          <mxGeometry width="50" height="50" relative="1" as="geometry">
            <mxPoint x="440" y="680" as="sourcePoint" />
            <mxPoint x="440" y="720" as="targetPoint" />
            <Array as="points">
              <mxPoint x="440" y="700" />
            </Array>
          </mxGeometry>
        </mxCell>
        <mxCell id="IO4nK84KxxKu2FDkfK-a-53" value="Функция print(), которая выводит IP и маску в удобном формате" style="rounded=0;whiteSpace=wrap;html=1;" vertex="1" parent="WIyWlLk6GJQsqaUBKTNV-1">
          <mxGeometry x="380" y="720" width="120" height="60" as="geometry" />
        </mxCell>
      </root>
    </mxGraphModel>
  </diagram>
</mxfile>
